# xmcd
#
# Track frame offsets:
#	150
#	16861
#	33676
#	47400
#	67139
#	83436
#	102242
#	119284
#	133331
#	146909
#	164884
#	182519
#	204043
#
# Disc length: 2949 seconds
#
# Revision: 1
# Processed by: cddbd v1.5.2PL0 Copyright (c) Steve Scherf et al.
# Submitted via: audiograbber 1.83.01
#
DISCID=b50b830d
DTITLE=Motörhaed - Kiss of Death
DYEAR=1900
DGENRE=Blues
TTITLE0=Sucker
TTITLE1=One Night Stand
TTITLE2=Devil I Know
TTITLE3=Trigger
TTITLE4=Under The Gun
TTITLE5=God Was Never On Your Side
TTITLE6=Living In The Past
TTITLE7=Christine
TTITLE8=Sword Of Glory
TTITLE9=Be My Baby
TTITLE10=Kingdom Of The Worm
TTITLE11=Going Down
TTITLE12=Whiplash
EXTD=
EXTT0=
EXTT1=
EXTT2=
EXTT3=
EXTT4=
EXTT5=
EXTT6=
EXTT7=
EXTT8=
EXTT9=
EXTT10=
EXTT11=
EXTT12=Bonus Track
PLAYORDER=
